<svg baseProfile="full" xmlns="http://www.w3.org/2000/svg" height="40" width="40"><defs><linearGradient id="a" x1="0%" x2="0%" y1="100%" y2="0%"><stop offset="0%" stop-color="#ffa000"/><stop offset="100%" stop-color="#f9ce49"/></linearGradient></defs><path fill="url(#a)" d="M.977 8.872c2.03-1.333 8.442-.927 8.442-.927s-.962-1.257-1.1-3.145c2.594-.88 8.077 2.012 8.077 2.012l1.035-6.332s7.847 3.266 9.94 10.788c.082.457.359 1.314.943 1.469 7.017 3.894 8.157 12.604 8.157 12.604l-6.383-.652s1.363 6.048-.162 8.324c-1.788-.626-2.75-1.883-2.75-1.883s-1.278 6.298-3.094 7.91c-2.094-2.164-2.63-4.856-2.63-4.856s-.884 1.121-2.655 1.369c-1.223-2.165-.555-7.552-.189-8.497.366-.945-3.203 5.776-6.455 6.937-1.069-1.397-1.819-4.368-1.819-4.368s-5.088 3.897-8.799 2.751c-.14-3.881 4.949-7.778 4.949-7.778s-2.674-1.499-3.743-2.895c1.968-2.837 9.387-4.53 8.379-4.424-1.007.107-6.383-.652-8.155-2.397.702-1.644 2.015-2.207 2.015-2.207s-2.459-1.219-4.003-3.803z"/><path fill="rgb( 215, 102, 26 )" d="M36.418 6.87c1.387-.344 3.292 2.717.716 2.144-3.782-.841-10.293 4.089-12.833 5.783.418.314 2.6 2.353 3.743 3.292.633-.699 3.381-1.811 3.667-1.574-1.321.379-2.474 1.279-3.124 1.767 2.867 2.403 6.272 5.366 7.593 6.852-2.084-1.802-6.644-5.164-9.5-7.235-.319.893-.361 1.774-.174 4.147-.65-1.884-.554-3.354-.645-4.75-1.064-.758-1.952-1.38-2.526-1.776-.945.711-1.891 1.412-2.841 2.109.616.949 1.509 2.805 2.031 4.591 2.005 1.822 5.052 3.561 7.169 10.351-2.661-5.836-5.815-8.216-7.005-9.146.71 3.947 1.889 11.64 1.521 15.507-.15-3.639-.898-9.186-1.417-12.19-1.399 1.398-3.183 3.855-4.186 8.454-.01-2.923 2.618-7.809 4.025-9.078-.713-3.148-1.918-6.09-2.944-7.804-1.032.75-2.314 1.681-3.445 2.495.437 2.115-2.337 11.105-4.072 13.141 2.257-4.359 3.579-10.183 3.294-12.402-3.994 2.882-9.93 7.623-13.93 10.828 2.442-2.167 6.551-5.725 10.027-8.765-3.226-2.418-5.962-1.903-8.439-1.873 2.223-.477 5.909-.607 8.823 1.579 1.042-.889 4.605-3.776 5.61-4.605-.771-.924-3.082-2.931-5.677-4.745-1.37.783-6.462 1.819-8.579.844 3.512.45 6.457-.608 7.802-1.345-2.794-1.686-8.048-4.597-9.993-4.696 2.125-.394 8.492 3.113 12.635 5.76-1.124-3.889-2.787-6.886-5.064-9.397 3.166 2.164 5.479 8.378 5.703 9.834 1.809 1.243 3.312 2.457 3.941 3.157.716-.575 2.772-2.116 3.455-2.647-.229-1.205-.473-2.389-.728-3.538-.681-.353-2.115-1.038-3.061-2.205 1.236.639 1.664 1.179 2.941 1.453-.805-3.241-2.161-7.835-3.082-9.989.796 1.387 2.115 5.273 2.998 7.892.988-.427 1.543-1.835 2.135-3.178-.341 2.01-1.504 3.239-1.932 3.548.646 2.002 1.351 4.06 1.69 5.225 3.221-2.455 8.331-6.493 13.678-7.815z"/></svg>