<svg baseProfile="full" xmlns="http://www.w3.org/2000/svg" height="52" width="52"><defs><linearGradient id="a" x1="0%" x2="0%" y1="0%" y2="100%"><stop offset="0%" stop-color="#d5806f"/><stop offset="100%" stop-color="#d74657"/></linearGradient></defs><path fill="url(#a)" d="M51.331 29.002c-3.298 2.657-9.678 5.56-9.678 5.56s.975 1.353 3.592 3.363c-4.166 2.136-11.403 1.676-11.403 1.676l1.983 8.205s-4.766-2.06-8.606-3.182c-.131.836-.222 1.867-.012 3.294-1.15-1.32-3.533-3.353-4.627-4.085-1.505-1.008-2.948-2.271-4.204-3.854-.331-.509-1.101-1.401-1.882-1.281-1.798-.176-7.967-1.201-9.484-1.812.97-1.321 1.718-1.871 3.418-2.839-5.212-2.238-10.163-6.311-10.163-6.311l8.772-3.644s-1.969-2.833-4.966-6.837c2.847-.298 5.178-.746 5.178-.746s-1.855-7.391-1.07-11.861c3.898 4.272 6.848 7.42 6.848 7.42s.463-2.81 2.472-7.041c2.066 5.047 2.274 9.063 3.368 11.244 1.033-2.162 1.415-6.091 4.225-11.787 1.676 4.297 3.664 7.263 3.664 7.263s6.463-7.17 9.927-10.889c-2.326 8.093-1.986 12.012-1.986 12.012s2.958 1.427 5.975 1.535c-3.74 4.032-6.713 7.97-7.82 9.758 3.964-.051 7.464-1.604 11.562-2.083-1.703 2.999-1.833 4.425-1.833 4.425s2.642 1.373 6.75 2.497z"/><path fill="rgb( 177, 74, 79 )" d="M9.74 50.057c-1.492 1.145-5.341-1.557-1.953-2.218 4.976-.971 10.292-10.358 12.482-13.743-.662-.16-3.333-1.289-5.186-1.824-1.475 1.263-4.88 4.456-5.345 4.32 1.396-1.154 3.447-3.328 4.632-4.355-4.671-1.399-11.305-3.3-13.65-4.403 3.424 1.084 10.619 2.755 15.109 3.759-.731-1.752-1.22-3.446-1.904-5.109 1.437 2.539 2.374 3.766 3.196 5.408 1.665.358 3.05.644 3.941.821.774-1.357 1.083-2.003 1.87-3.346-.909-1.55-3.863-4.829-5.4-6.716-3.339-1.15-5.313-1.956-12.069-4.611 6.587 1.859 9.641 3.083 11.546 3.583-2.865-4.403-7.401-11.905-8.929-16.777 2.034 4.324 5.76 10.643 7.916 14.004.086-3.426.495-6.151 1.28-12.115-.224 3.14-.841 9.886-.769 12.785 2.461 3.434 5.453 6.49 7.205 8.453.858-1.45 2.951-5.391 3.897-6.97-.62-3.315-2.815-10.696-2.55-15.744.86 7.145 2.225 11.187 3.173 14.628 3.333-5.585 6.366-11.742 9.542-17.722-1.832 3.905-4.986 10.736-7.616 16.242 3.517-.773 7.018-2.263 11.446-3.443-2.998 1.305-8.113 3.107-12.069 4.558-.799 1.623-2.366 4.759-3.151 6.291 1.397.712 8.091 2.351 12.136 3.182 3.403-2.527 5.202-4.721 6.87-6.393-1.5 2.035-3.966 4.801-6.158 6.428 4.219.571 8.891 1.032 11.279.13-2.354 1.593-12.352.384-18.683-.641 4.029 3.507 7.787 6.704 11.836 9.614-5.466-3.311-9.481-7.035-13.105-9.963-2.808-.553-3.686-.726-4.799-1.242-.568 1.072-2.255 4.018-2.806 5.019.891 1.338 1.787 2.642 2.679 3.898 1.757.277 3.749.436 5.115.501-.995.327-2.466.198-4.587.345 2.619 3.498 6.59 8.344 8.796 10.466-1.664-1.259-5.91-6.017-8.306-8.722-.083 1.419-.175 3.934-.457 6.711-.133-3.353-.113-5.193.056-7.304-1.798-2.083-3.046-3.2-4.046-4.432-2.622 4.663-6.709 12.237-12.464 16.647z"/></svg>